<?xml version="1.0" encoding="UTF-8"?>
<!-- Generator: visioncortex VTracer 0.6.3 -->
<svg version="1.1" xmlns="http://www.w3.org/2000/svg" width="1280" height="590">
<path d="M0 0 C0.91 -0 1.82 -0 2.76 -0.01 C3.79 -0 4.82 0 5.88 0.01 C6.96 0.01 8.04 0.01 9.16 0.01 C30.07 0.11 50.97 0.67 71.88 1.13 C73.15 3.69 73 5.48 73 8.35 C73 10 73 10 73 11.7 C73 12.91 72.99 14.13 72.99 15.39 C72.99 16.66 72.99 17.94 72.99 19.26 C72.99 22.77 72.98 26.28 72.98 29.79 C72.97 33.45 72.97 37.12 72.97 40.79 C72.97 47.73 72.96 54.68 72.95 61.62 C72.94 69.53 72.93 77.43 72.93 85.34 C72.91 101.6 72.9 117.87 72.88 134.13 C72.21 134.13 71.54 134.13 70.85 134.13 C54.59 134.11 38.33 134.09 22.08 134.08 C14.22 134.08 6.35 134.07 -1.51 134.06 C-8.36 134.05 -15.21 134.04 -22.06 134.04 C-25.69 134.04 -29.31 134.03 -32.94 134.03 C-36.99 134.02 -41.03 134.02 -45.08 134.02 C-46.29 134.02 -47.5 134.01 -48.75 134.01 C-50.39 134.01 -50.39 134.01 -52.07 134.01 C-53.03 134.01 -53.98 134.01 -54.97 134.01 C-57.11 133.89 -57.11 133.89 -58.12 135.13 C-58.23 137.54 -58.27 139.92 -58.26 142.33 C-58.27 143.48 -58.27 143.48 -58.27 144.65 C-58.28 147.25 -58.28 149.85 -58.28 152.45 C-58.29 154.32 -58.29 156.19 -58.3 158.06 C-58.31 163.22 -58.32 168.38 -58.33 173.55 C-58.33 179.1 -58.35 184.66 -58.36 190.22 C-58.38 199.86 -58.4 209.49 -58.42 219.13 C-58.44 233.07 -58.47 247 -58.5 260.94 C-58.54 283.54 -58.59 306.15 -58.63 328.75 C-58.67 350.72 -58.71 372.68 -58.75 394.65 C-58.75 395.32 -58.76 396 -58.76 396.7 C-58.77 403.49 -58.78 410.29 -58.8 417.08 C-58.91 474.1 -59.02 531.12 -59.12 588.13 C-70.98 588.16 -82.83 588.18 -94.69 588.2 C-95.57 588.2 -96.45 588.2 -97.35 588.2 C-128.95 588.23 -160.53 587.89 -192.12 587.13 C-192.15 543.39 -192.17 499.64 -192.18 455.9 C-192.18 450.71 -192.18 445.52 -192.18 440.33 C-192.18 439.3 -192.18 438.27 -192.18 437.2 C-192.19 420.58 -192.19 403.95 -192.2 387.32 C-192.21 370.21 -192.22 353.09 -192.22 335.98 C-192.22 326.39 -192.22 316.8 -192.23 307.21 C-192.24 288.42 -192.24 269.62 -192.17 250.83 C-192.16 249.36 -192.16 247.89 -192.15 246.42 C-192.15 245.36 -192.15 245.36 -192.14 244.27 C-192.13 239.77 -192.13 235.27 -192.13 230.77 C-192.14 225.62 -192.13 220.47 -192.07 215.32 C-192.06 213.59 -192.06 211.87 -192.08 210.15 C-192.13 201.73 -191.94 195.29 -185.97 188.82 C-183.65 186.69 -181.31 184.62 -178.86 182.64 C-177 181.02 -175.45 179.3 -173.85 177.43 C-170.34 173.37 -166.73 169.42 -163.06 165.51 C-162.42 164.82 -161.78 164.14 -161.12 163.43 C-156.13 158.14 -151.02 152.99 -145.85 147.87 C-141.74 143.79 -137.85 139.58 -134.12 135.13 C-130.7 131.05 -127.32 127.2 -123.25 123.76 C-118.4 119.64 -114.31 114.91 -110.12 110.13 C-108.54 108.36 -106.96 106.59 -105.38 104.82 C-104.68 104.04 -103.98 103.26 -103.27 102.46 C-100.95 99.94 -98.56 97.53 -96.12 95.13 C-86.6 85.81 -86.6 85.81 -77.69 75.91 C-74.79 72.61 -71.6 69.6 -68.48 66.52 C-67.58 65.63 -66.68 64.74 -65.75 63.82 C-64.86 62.94 -63.96 62.05 -63.04 61.14 C-60.86 58.94 -58.82 56.66 -56.8 54.31 C-52.29 49.09 -47.36 44.32 -42.44 39.49 C-36.85 33.95 -31.59 28.23 -26.69 22.07 C-24.66 19.75 -22.77 17.92 -20.44 15.95 C-15.94 12.13 -12.11 7.8 -8.23 3.39 C-5.4 0.36 -3.99 0.01 0 0 Z " fill="#FCFCFC" transform="translate(192.125,-0.1328125)"/>
<path d="M0 0 C1.18 3.55 1.11 6.33 1.08 10.08 C1.08 10.81 1.08 11.54 1.07 12.29 C1.06 14.74 1.04 17.2 1.02 19.65 C1.01 21.41 1 23.18 0.99 24.94 C0.97 28.77 0.95 32.6 0.92 36.43 C0.88 42.6 0.84 48.76 0.81 54.93 C0.76 63.77 0.7 72.61 0.65 81.45 C0.51 103.27 0.39 125.1 0.28 146.93 C0.26 149.24 0.25 151.55 0.24 153.86 C0.01 196.54 -0.09 239.21 -0.06 281.89 C-0.06 284.07 -0.06 286.25 -0.06 288.43 C-0.05 305.29 -0.03 322.14 0 339 C2.39 339.23 2.39 339.23 4.79 336.44 C5.93 335.3 7.06 334.15 8.19 333 C8.77 332.41 9.36 331.81 9.97 331.2 C13.59 327.51 17.12 323.75 20.44 319.78 C23.26 316.56 26.38 313.61 29.43 310.61 C34 306.09 38.41 301.53 42.53 296.59 C44.57 294.38 46.2 293.06 49.25 292.83 C50.13 292.87 51.01 292.9 51.91 292.94 C52.91 292.98 53.91 293.01 54.94 293.05 C56.01 293.1 57.09 293.15 58.2 293.21 C59.3 293.25 60.4 293.3 61.54 293.34 C63.87 293.44 66.2 293.54 68.53 293.65 C72.12 293.81 75.7 293.96 79.29 294.1 C81.55 294.2 83.81 294.3 86.07 294.39 C87.15 294.44 88.23 294.48 89.34 294.53 C90.33 294.58 91.32 294.62 92.34 294.67 C93.22 294.71 94.1 294.75 95 294.79 C97 295 97 295 98 296 C98.1 298.68 98.13 301.33 98.11 304.01 C98.11 304.85 98.11 305.69 98.11 306.55 C98.11 309.34 98.11 312.12 98.1 314.91 C98.1 316.84 98.09 318.76 98.09 320.69 C98.09 325.77 98.08 330.85 98.07 335.93 C98.06 341.12 98.05 346.3 98.05 351.48 C98.04 361.65 98.02 371.83 98 382 C96.77 382.01 95.55 382.02 94.29 382.03 C82.76 382.13 71.24 382.23 59.72 382.34 C53.79 382.39 47.87 382.45 41.95 382.5 C36.23 382.54 30.52 382.6 24.81 382.65 C22.62 382.67 20.44 382.69 18.25 382.71 C15.21 382.73 12.16 382.76 9.11 382.79 C8.2 382.8 7.28 382.81 6.34 382.81 C2.35 382.46 2.35 382.46 -1 384 C-1.11 386.66 -1.15 389.28 -1.16 391.94 C-1.16 392.78 -1.17 393.62 -1.17 394.49 C-1.19 397.34 -1.2 400.18 -1.21 403.02 C-1.21 405.05 -1.22 407.08 -1.24 409.11 C-1.26 414.64 -1.28 420.17 -1.3 425.7 C-1.33 431.47 -1.35 437.24 -1.38 443.01 C-1.43 453.95 -1.47 464.88 -1.52 475.82 C-1.58 490.59 -1.64 505.37 -1.71 520.14 C-1.81 543.43 -1.91 566.71 -2 590 C-44.57 590 -87.14 590 -131 590 C-131.28 532.04 -131.54 474.09 -131.74 416.13 C-131.76 409.29 -131.79 402.45 -131.81 395.62 C-131.81 394.93 -131.82 394.25 -131.82 393.55 C-131.9 371.49 -132 349.43 -132.11 327.37 C-132.23 304.06 -132.32 280.74 -132.39 257.43 C-132.43 243.46 -132.49 229.5 -132.58 215.53 C-132.64 205.96 -132.67 196.39 -132.68 186.81 C-132.69 181.29 -132.71 175.76 -132.76 170.24 C-132.8 165.18 -132.82 160.12 -132.8 155.06 C-132.8 153.23 -132.82 151.4 -132.84 149.57 C-133.05 134.18 -133.05 134.18 -128.57 129.02 C-127.4 127.99 -126.22 126.98 -125 126 C-124.04 124.73 -124.04 124.73 -123.06 123.44 C-121.21 121.24 -119.37 119.54 -117.19 117.69 C-113.64 114.66 -110.61 111.4 -107.59 107.85 C-105.51 105.44 -103.28 103.22 -101 101 C-100.17 100.17 -99.35 99.35 -98.5 98.5 C-97.26 97.26 -97.26 97.26 -96 96 C-95.3 95.3 -94.61 94.61 -93.89 93.89 C-90.82 90.82 -87.74 87.76 -84.67 84.69 C-81.22 81.26 -77.78 77.83 -74.34 74.4 C-72.54 72.6 -70.73 70.79 -68.92 68.99 C-66.29 66.38 -63.66 63.76 -61.04 61.14 C-60.24 60.34 -59.44 59.54 -58.61 58.72 C-54.4 54.51 -50.34 50.22 -46.47 45.69 C-44.43 43.34 -42.23 41.17 -40 39 C-39.17 38.17 -38.35 37.35 -37.5 36.5 C-25 24 -25 24 -22.92 21.92 C-20.49 19.49 -18.07 17.05 -15.64 14.61 C-14.03 12.99 -12.42 11.37 -10.81 9.75 C-9.58 8.51 -9.58 8.51 -8.33 7.24 C-7.55 6.46 -6.76 5.67 -5.96 4.86 C-5.25 4.14 -4.53 3.43 -3.8 2.69 C-2 1 -2 1 0 0 Z " fill="#FCFCFC" transform="translate(787,0)"/>
<path d="M0 0 C8.6 -0.3 17.19 -0.53 25.79 -0.67 C29.79 -0.74 33.78 -0.83 37.77 -0.98 C41.63 -1.12 45.48 -1.2 49.34 -1.23 C50.81 -1.26 52.28 -1.3 53.75 -1.37 C58.39 -1.59 62.54 -1.54 67 0 C70.71 3.96 72.71 8.08 75 13 C76.16 14.89 77.34 16.77 78.56 18.62 C79.13 19.51 79.7 20.4 80.29 21.32 C80.85 22.2 81.42 23.09 82 24 C83.17 25.83 84.33 27.67 85.5 29.5 C86.67 31.33 87.83 33.17 89 35 C106.5 62.5 106.5 62.5 108.24 65.24 C109.44 67.11 110.63 68.99 111.83 70.87 C115.17 76.1 118.48 81.35 121.75 86.62 C126.25 93.84 130.85 100.99 135.48 108.12 C141.27 117.03 146.92 126.03 152.59 135.01 C156.38 141.02 160.18 147.01 164 153 C165.76 155.76 167.51 158.52 169.27 161.28 C170.37 163.01 171.47 164.74 172.57 166.47 C176.93 173.3 181.26 180.16 185.59 187.01 C188.82 192.13 192.06 197.25 195.31 202.35 C196.96 204.94 198.61 207.53 200.26 210.12 C201.18 211.57 201.18 211.57 202.12 213.04 C203.05 214.5 203.05 214.5 204 216 C205.17 217.83 206.33 219.67 207.5 221.5 C221.5 243.5 221.5 243.5 223.13 246.11 C224.31 247.93 225.54 249.72 226.84 251.46 C232.22 258.91 232.99 264.73 232.84 273.77 C232.84 275.14 232.85 276.5 232.86 277.86 C232.88 281.58 232.85 285.29 232.81 289.01 C232.78 293.02 232.79 297.04 232.8 301.06 C232.8 308.01 232.78 314.96 232.74 321.91 C232.68 331.96 232.66 342 232.66 352.05 C232.64 368.36 232.59 384.66 232.53 400.97 C232.46 416.8 232.41 432.63 232.38 448.47 C232.38 449.44 232.38 450.42 232.38 451.43 C232.37 456.33 232.36 461.23 232.35 466.13 C232.28 506.75 232.16 547.38 232 588 C214.94 588.02 197.87 588.04 180.81 588.05 C172.89 588.06 164.97 588.06 157.04 588.08 C150.14 588.09 143.24 588.09 136.34 588.09 C132.68 588.1 129.02 588.1 125.37 588.11 C121.29 588.11 117.21 588.11 113.14 588.11 C111.92 588.12 110.7 588.12 109.44 588.12 C108.33 588.12 107.23 588.12 106.09 588.12 C104.65 588.12 104.65 588.12 103.17 588.12 C101 588 101 588 100 587 C98.92 581.29 98.85 575.68 98.85 569.88 C98.84 568.37 98.84 568.37 98.84 566.83 C98.82 563.46 98.82 560.08 98.81 556.71 C98.8 554.27 98.79 551.84 98.79 549.41 C98.77 544.14 98.75 538.87 98.74 533.6 C98.72 525.85 98.7 518.1 98.67 510.34 C98.63 497.49 98.59 484.64 98.55 471.79 C98.5 452.92 98.44 434.05 98.38 415.18 C98.38 414.4 98.37 413.62 98.37 412.82 C98.34 403.39 98.31 393.96 98.28 384.54 C98.26 379.03 98.24 373.53 98.22 368.02 C98.04 313.37 97.79 258.72 97.45 204.07 C97.44 201.3 97.42 198.53 97.4 195.76 C97.27 174.5 97.14 153.25 97 132 C95.8 131.99 94.6 131.98 93.36 131.97 C82.08 131.87 70.79 131.77 59.5 131.66 C53.7 131.61 47.89 131.55 42.09 131.5 C36.5 131.46 30.9 131.4 25.3 131.35 C23.16 131.33 21.02 131.31 18.88 131.29 C15.9 131.27 12.91 131.24 9.93 131.21 C9.03 131.2 8.14 131.19 7.22 131.19 C1.11 131.11 1.11 131.11 0 130 C-0.1 128.32 -0.12 126.63 -0.12 124.94 C-0.12 123.85 -0.12 122.75 -0.12 121.63 C-0.12 120.41 -0.12 119.2 -0.11 117.95 C-0.11 116.68 -0.11 115.42 -0.11 114.11 C-0.11 110.62 -0.11 107.14 -0.1 103.65 C-0.1 100.01 -0.09 96.37 -0.09 92.73 C-0.09 85.83 -0.08 78.93 -0.07 72.03 C-0.06 64.18 -0.06 56.32 -0.05 48.47 C-0.04 32.31 -0.02 16.16 0 0 Z " fill="#FCFCFC" transform="translate(819,0)"/>
<path d="M0 0 C0.94 0 1.88 0 2.85 0 C3.93 -0 5.01 -0.01 6.12 -0.01 C7.9 -0 7.9 -0 9.72 0.01 C11.59 0 11.59 0 13.5 0 C16.92 -0 20.35 0 23.77 0.01 C27.35 0.02 30.93 0.02 34.51 0.02 C40.52 0.02 46.53 0.03 52.54 0.04 C59.5 0.06 66.46 0.06 73.41 0.06 C80.1 0.06 86.78 0.07 93.46 0.08 C96.31 0.08 99.16 0.08 102.01 0.08 C105.98 0.08 109.95 0.09 113.93 0.1 C115.12 0.1 116.31 0.1 117.53 0.1 C119.15 0.11 119.15 0.11 120.79 0.12 C121.73 0.12 122.67 0.12 123.64 0.12 C125.76 0.25 125.76 0.25 126.76 1.25 C126.89 2.6 126.95 3.97 126.99 5.33 C127.03 6.65 127.03 6.65 127.06 8.01 C127.1 9.48 127.1 9.48 127.13 10.98 C127.16 12.02 127.19 13.06 127.22 14.12 C127.31 17.62 127.39 21.13 127.47 24.63 C127.52 26.46 127.52 26.46 127.57 28.33 C128.15 51.8 128.51 75.28 128.78 98.76 C128.83 102.61 128.87 106.47 128.92 110.32 C128.93 111.09 128.94 111.85 128.95 112.65 C129.1 124.98 129.4 137.31 129.74 149.64 C130.1 162.35 130.3 175.05 130.37 187.77 C130.42 194.89 130.53 201.99 130.81 209.11 C132.65 257.34 132.65 257.34 115.8 275.91 C108.74 283.19 101.05 289.69 92.98 295.81 C88.65 299.17 85.23 303.04 81.76 307.25 C80.54 308.55 79.31 309.83 78.06 311.09 C77.42 311.73 76.79 312.37 76.14 313.03 C75.48 313.69 74.82 314.35 74.14 315.03 C73.45 315.73 72.75 316.43 72.04 317.15 C70.58 318.61 69.13 320.07 67.67 321.52 C65.43 323.77 63.2 326.01 60.97 328.26 C59.55 329.69 58.13 331.11 56.71 332.53 C56.04 333.21 55.37 333.88 54.68 334.58 C54.07 335.19 53.45 335.8 52.81 336.44 C52.27 336.98 51.73 337.53 51.17 338.09 C49.76 339.25 49.76 339.25 47.76 339.25 C47.37 340.12 47.37 340.12 46.98 341.01 C45.63 343.47 44.15 345.09 42.15 347.06 C41.42 347.8 40.68 348.53 39.92 349.29 C39.12 350.08 38.32 350.86 37.5 351.67 C36.67 352.49 35.85 353.31 35 354.15 C32.36 356.77 29.72 359.39 27.07 362 C24.44 364.6 21.82 367.2 19.19 369.8 C17.56 371.42 15.93 373.04 14.29 374.65 C7.67 381.21 1.59 387.48 -3 395.64 C-10.43 408.33 -20.79 420.73 -35.24 425.25 C-52.01 428.87 -69.89 427.98 -86.93 427.56 C-88.66 427.52 -88.66 427.52 -90.42 427.48 C-102.16 427.16 -113.89 426.67 -125.61 425.93 C-126.91 425.85 -126.91 425.85 -128.24 425.77 C-134.12 425.37 -134.12 425.37 -135.24 424.25 C-135.34 422.57 -135.37 420.89 -135.38 419.21 C-135.38 418.11 -135.38 417.02 -135.39 415.9 C-135.39 414.69 -135.39 413.48 -135.39 412.23 C-135.39 410.97 -135.39 409.7 -135.4 408.4 C-135.41 404.92 -135.41 401.44 -135.41 397.96 C-135.41 395.06 -135.41 392.16 -135.42 389.26 C-135.43 382.42 -135.43 375.58 -135.43 368.74 C-135.43 361.68 -135.44 354.61 -135.45 347.54 C-135.47 341.49 -135.47 335.43 -135.47 329.37 C-135.47 325.75 -135.47 322.13 -135.48 318.51 C-135.5 314.47 -135.49 310.43 -135.49 306.39 C-135.49 305.19 -135.5 303.98 -135.5 302.74 C-135.5 301.64 -135.49 300.55 -135.49 299.42 C-135.49 298.46 -135.49 297.51 -135.49 296.52 C-135.24 294.25 -135.24 294.25 -133.24 292.25 C-130.98 292 -130.98 292 -128.1 292.01 C-127.02 292.01 -125.93 292 -124.81 292 C-123.61 292.01 -122.41 292.01 -121.17 292.02 C-119.91 292.02 -118.66 292.02 -117.36 292.02 C-113.9 292.02 -110.45 292.03 -106.99 292.05 C-103.38 292.06 -99.77 292.06 -96.16 292.06 C-89.32 292.07 -82.48 292.08 -75.64 292.1 C-67.86 292.13 -60.07 292.14 -52.29 292.15 C-36.27 292.17 -20.26 292.2 -4.24 292.25 C-4.24 291.64 -4.24 291.02 -4.24 290.39 C-4.29 254.1 -4.32 217.81 -4.34 181.52 C-4.35 177.16 -4.35 172.81 -4.35 168.46 C-4.35 167.59 -4.35 166.72 -4.35 165.83 C-4.36 151.78 -4.38 137.73 -4.4 123.68 C-4.42 109.27 -4.43 94.86 -4.43 80.46 C-4.43 71.56 -4.44 62.66 -4.46 53.77 C-4.47 47.67 -4.47 41.58 -4.47 35.49 C-4.47 31.97 -4.47 28.45 -4.48 24.93 C-4.49 21.12 -4.49 17.31 -4.48 13.5 C-4.49 12.38 -4.49 11.25 -4.5 10.1 C-4.5 9.08 -4.49 8.07 -4.49 7.02 C-4.49 6.14 -4.49 5.26 -4.49 4.36 C-4.13 1.26 -3.08 0.34 0 0 Z " fill="#FCFCFC" transform="translate(300.2423257827759,0.7511110305786133)"/>
<path d="M0 0 C1.82 -0.04 1.82 -0.04 3.68 -0.09 C5.02 -0.11 6.35 -0.13 7.69 -0.14 C8.69 -0.16 8.69 -0.16 9.72 -0.17 C13.28 -0.22 16.85 -0.25 20.41 -0.28 C24.08 -0.3 27.74 -0.38 31.4 -0.47 C34.23 -0.53 37.06 -0.55 39.89 -0.56 C41.9 -0.58 43.9 -0.64 45.9 -0.7 C54.87 -0.66 54.87 -0.66 58.78 2.35 C60.79 4.6 62.51 6.88 64.21 9.37 C65.85 11.06 67.52 12.72 69.21 14.37 C73.56 18.61 77.67 22.97 81.63 27.58 C82.91 29.03 84.26 30.4 85.65 31.74 C87.21 33.37 87.21 33.37 87.21 35.37 C87.8 35.62 88.39 35.88 89 36.14 C91.44 37.5 92.73 38.87 94.5 41.01 C98.05 45.19 101.75 49.2 105.52 53.18 C106.83 54.58 108.14 55.97 109.45 57.37 C110.09 58.04 110.72 58.72 111.38 59.42 C111.98 60.06 112.59 60.71 113.21 61.37 C113.76 61.95 114.3 62.54 114.87 63.14 C116.3 64.67 117.72 66.21 119.15 67.74 C119.94 68.6 120.73 69.45 121.55 70.33 C123.21 72.37 123.21 72.37 123.21 74.37 C123.87 74.37 124.53 74.37 125.21 74.37 C125.21 75.03 125.21 75.69 125.21 76.37 C126.2 76.7 127.19 77.03 128.21 77.37 C128.21 78.03 128.21 78.69 128.21 79.37 C128.87 79.37 129.53 79.37 130.21 79.37 C131.79 80.94 131.79 80.94 133.58 83.06 C134.21 83.79 134.83 84.52 135.47 85.28 C136.78 86.85 138.06 88.45 139.33 90.06 C141.94 93.27 144.88 96.08 147.84 98.96 C151.62 102.69 155.17 106.55 158.63 110.58 C159.91 112.03 161.26 113.4 162.65 114.74 C164.21 116.37 164.21 116.37 164.21 118.37 C164.8 118.63 165.4 118.89 166.01 119.15 C168.4 120.48 169.66 121.77 171.4 123.87 C174.93 128.06 178.6 132.12 182.29 136.17 C186.03 140.46 186.51 143.34 186.53 148.83 C186.54 149.99 186.54 149.99 186.56 151.18 C186.59 153.82 186.61 156.46 186.62 159.1 C186.64 161.04 186.66 162.97 186.68 164.91 C186.73 170.31 186.77 175.72 186.81 181.12 C186.83 184.55 186.86 187.99 186.89 191.42 C187.54 269.4 187.3 347.39 187.21 425.37 C173.98 426.09 160.81 426.52 147.57 426.5 C145.9 426.5 144.22 426.5 142.55 426.51 C139.11 426.51 135.66 426.5 132.21 426.5 C127.78 426.49 123.36 426.5 118.93 426.5 C115.5 426.51 112.08 426.51 108.65 426.5 C107.02 426.5 105.38 426.5 103.75 426.51 C101.49 426.51 99.23 426.5 96.97 426.5 C95.68 426.5 94.4 426.5 93.07 426.5 C90.21 426.37 90.21 426.37 89.21 425.37 C89.11 423.62 89.07 421.87 89.07 420.12 C89.06 418.98 89.06 417.84 89.05 416.66 C89.05 415.38 89.05 414.11 89.05 412.8 C89.05 411.44 89.04 410.09 89.04 408.74 C89.02 405 89.01 401.26 89.01 397.52 C89 393.5 88.99 389.48 88.97 385.45 C88.95 378.47 88.93 371.5 88.92 364.52 C88.89 354.43 88.87 344.34 88.84 334.26 C88.79 317.89 88.75 301.52 88.71 285.16 C88.67 269.26 88.63 253.35 88.58 237.45 C88.58 236.47 88.58 235.49 88.57 234.48 C88.56 229.57 88.55 224.66 88.53 219.74 C88.42 178.95 88.31 138.16 88.21 97.37 C86.43 97.37 86.43 97.37 84.61 97.38 C73.44 97.4 62.27 97.41 51.1 97.42 C45.36 97.43 39.62 97.43 33.87 97.45 C28.34 97.46 22.8 97.46 17.26 97.46 C15.14 97.47 13.03 97.47 10.91 97.48 C7.95 97.48 5 97.48 2.04 97.48 C0.72 97.49 0.72 97.49 -0.64 97.49 C-6.68 97.48 -6.68 97.48 -7.79 96.37 C-7.9 93.46 -7.94 90.57 -7.94 87.66 C-7.94 86.75 -7.94 85.83 -7.95 84.89 C-7.96 81.85 -7.96 78.82 -7.96 75.78 C-7.96 73.68 -7.97 71.58 -7.97 69.48 C-7.98 65.07 -7.98 60.65 -7.98 56.24 C-7.98 50.58 -7.99 44.91 -8.01 39.25 C-8.02 34.91 -8.02 30.57 -8.02 26.23 C-8.02 24.14 -8.03 22.05 -8.03 19.96 C-8.04 17.04 -8.04 14.13 -8.03 11.21 C-8.04 10.34 -8.05 9.47 -8.05 8.57 C-8.01 1.51 -6.99 0.15 0 0 Z " fill="#FCFCFC" transform="translate(1090.79150390625,161.630126953125)"/>
<path d="M0 0 C0.98 -0 1.96 -0.01 2.96 -0.01 C4.02 -0.01 5.08 -0.01 6.17 -0 C7.25 -0 8.33 -0.01 9.45 -0.01 C11.74 -0.01 14.03 -0.01 16.32 -0 C19.84 0 23.36 -0 26.88 -0.01 C29.1 -0.01 31.32 -0.01 33.54 -0 C35.14 -0.01 35.14 -0.01 36.76 -0.01 C38.22 -0 38.22 -0 39.71 0 C41 0 41 0 42.32 0 C44.29 0.13 44.29 0.13 45.29 1.13 C45.38 3.22 45.41 5.3 45.4 7.39 C45.4 8.05 45.4 8.7 45.4 9.37 C45.4 11.54 45.4 13.71 45.39 15.88 C45.39 17.38 45.39 18.88 45.38 20.39 C45.38 24.34 45.37 28.3 45.36 32.26 C45.35 36.29 45.34 40.33 45.34 44.36 C45.33 52.28 45.31 60.21 45.29 68.13 C44.24 68.14 43.19 68.15 42.11 68.16 C32.23 68.26 22.36 68.36 12.49 68.47 C7.41 68.52 2.33 68.58 -2.75 68.63 C-7.64 68.67 -12.54 68.73 -17.43 68.78 C-19.3 68.8 -21.18 68.82 -23.05 68.84 C-25.66 68.86 -28.27 68.89 -30.88 68.92 C-31.67 68.93 -32.45 68.94 -33.25 68.94 C-36.78 68.67 -36.78 68.67 -39.71 70.13 C-39.8 71.94 -39.83 73.75 -39.82 75.57 C-39.82 76.73 -39.82 77.89 -39.82 79.09 C-39.82 80.35 -39.81 81.61 -39.81 82.91 C-39.81 84.2 -39.8 85.49 -39.8 86.81 C-39.8 90.24 -39.79 93.66 -39.78 97.08 C-39.77 100.58 -39.76 104.07 -39.76 107.56 C-39.75 114.42 -39.73 121.27 -39.71 128.13 C-38.12 128.14 -38.12 128.14 -36.49 128.16 C-26.5 128.26 -16.51 128.36 -6.51 128.47 C-1.38 128.52 3.76 128.58 8.9 128.63 C13.85 128.67 18.81 128.73 23.76 128.78 C25.65 128.8 27.55 128.82 29.44 128.84 C32.09 128.86 34.73 128.89 37.37 128.92 C38.17 128.93 38.96 128.94 39.77 128.94 C45.18 129.02 45.18 129.02 46.29 130.13 C46.38 132.09 46.41 134.06 46.4 136.03 C46.4 137.29 46.4 138.55 46.4 139.85 C46.4 141.23 46.39 142.62 46.39 144.01 C46.39 145.42 46.39 146.83 46.38 148.24 C46.38 151.96 46.37 155.68 46.36 159.4 C46.35 163.2 46.34 166.99 46.34 170.78 C46.33 178.23 46.31 185.68 46.29 193.13 C23.1 193.15 -0.09 193.17 -23.28 193.18 C-34.05 193.19 -44.82 193.19 -55.58 193.2 C-64.97 193.21 -74.35 193.22 -83.73 193.22 C-88.7 193.22 -93.67 193.23 -98.64 193.24 C-103.31 193.24 -107.98 193.24 -112.66 193.24 C-114.38 193.24 -116.1 193.24 -117.82 193.25 C-120.16 193.25 -122.49 193.25 -124.83 193.25 C-126.14 193.25 -127.45 193.25 -128.81 193.25 C-131.71 193.13 -131.71 193.13 -132.71 192.13 C-132.84 190.24 -132.9 188.35 -132.93 186.45 C-132.96 185.24 -132.98 184.02 -133 182.77 C-133.08 177.18 -133.13 171.59 -133.17 166 C-133.19 163.06 -133.23 160.11 -133.29 157.17 C-133.36 153.61 -133.4 150.05 -133.41 146.48 C-133.43 144.48 -133.48 142.47 -133.53 140.46 C-133.51 134.34 -133.44 130.16 -129.33 125.4 C-128.15 124.28 -126.94 123.19 -125.71 122.13 C-124.84 121.24 -123.98 120.36 -123.08 119.44 C-122.3 118.68 -121.52 117.92 -120.71 117.13 C-117.04 113.51 -113.58 109.78 -110.23 105.87 C-108.17 103.51 -105.96 101.32 -103.71 99.13 C-102.88 98.3 -102.06 97.48 -101.21 96.63 C-97.04 92.46 -92.88 88.3 -88.71 84.13 C-88.02 83.44 -87.33 82.75 -86.61 82.03 C-83.49 78.91 -80.36 75.79 -77.22 72.67 C-73.69 69.15 -70.16 65.63 -66.63 62.1 C-64.77 60.25 -62.91 58.4 -61.05 56.55 C-58.35 53.86 -55.66 51.17 -52.97 48.48 C-52.14 47.67 -51.32 46.85 -50.47 46.01 C-46.22 41.75 -42.13 37.41 -38.2 32.85 C-36.39 30.77 -34.5 28.79 -32.55 26.84 C-31.84 26.13 -31.13 25.41 -30.39 24.68 C-29.67 23.96 -28.95 23.24 -28.21 22.5 C-27.49 21.78 -26.77 21.06 -26.03 20.31 C-22.21 16.5 -18.31 12.88 -14.18 9.41 C-12.39 7.85 -10.88 6.17 -9.4 4.32 C-6.42 0.62 -4.75 0 0 0 Z " fill="#FCFCFC" transform="translate(495.709228515625,291.87060546875)"/>
<path d="M0 0 C21.45 0 42.9 0 65 0 C66 1 66 1 66.11 4.76 C66.11 6.48 66.1 8.21 66.09 9.94 C66.08 10.88 66.08 11.83 66.08 12.8 C66.07 15.98 66.06 19.15 66.04 22.33 C66.03 26.94 66.02 31.55 66.01 36.15 C66.01 37.97 66.01 37.97 66 39.81 C65.99 49.66 66.05 59.51 66.15 69.36 C66.24 79.34 66.27 89.32 66.28 99.31 C66.29 105.7 66.32 112.09 66.41 118.48 C66.49 124.83 66.51 131.17 66.49 137.52 C66.49 139.9 66.51 142.27 66.56 144.64 C66.79 156.37 66.96 165.71 58.7 174.7 C57.03 176.37 55.33 177.97 53.57 179.54 C51.23 181.71 49.34 184.12 47.38 186.62 C44.11 190.65 40.79 194.62 37.44 198.56 C31.84 205.16 26.4 211.87 21.13 218.73 C20.64 219.37 20.14 220.02 19.62 220.68 C18.64 221.96 17.66 223.24 16.68 224.53 C15.5 226.06 14.25 227.53 13 229 C12.34 229 11.68 229 11 229 C10.76 229.72 10.53 230.44 10.29 231.18 C8.78 234.48 6.93 236.51 4.44 239.12 C-4.25 248.34 -4.25 248.34 -11.58 258.61 C-14.99 261.98 -18.15 261.78 -22.7 261.8 C-23.61 261.83 -24.51 261.85 -25.45 261.88 C-28.63 261.95 -31.82 261.98 -35 262 C-36.22 262.01 -37.44 262.03 -38.7 262.04 C-47.67 262.13 -56.63 262.14 -65.59 262.13 C-68.51 262.12 -71.44 262.13 -74.36 262.13 C-77.19 262.14 -80.01 262.14 -82.84 262.13 C-84.83 262.13 -86.83 262.14 -88.82 262.14 C-90.01 262.14 -91.21 262.13 -92.44 262.13 C-94.02 262.13 -94.02 262.13 -95.63 262.13 C-98 262 -98 262 -99 261 C-99.1 259.05 -99.14 257.09 -99.15 255.14 C-99.15 253.88 -99.16 252.63 -99.16 251.33 C-99.17 249.95 -99.17 248.57 -99.17 247.19 C-99.17 245.79 -99.17 244.38 -99.18 242.97 C-99.18 240.02 -99.19 237.07 -99.19 234.12 C-99.19 230.33 -99.2 226.54 -99.22 222.75 C-99.23 219.85 -99.23 216.94 -99.23 214.04 C-99.23 212.64 -99.23 211.24 -99.24 209.85 C-99.25 207.9 -99.25 205.95 -99.24 203.99 C-99.24 202.88 -99.25 201.77 -99.25 200.63 C-99 198 -99 198 -97 196 C-64.99 196 -32.98 196 0 196 C0 131.32 0 66.64 0 0 Z " fill="#FCFCFC" transform="translate(558,0)"/>
<path d="M0 0 C44.22 0 88.44 0 134 0 C134 43.23 134 86.46 134 131 C100.69 131.04 100.69 131.04 86.77 131.05 C77.15 131.05 67.52 131.06 57.9 131.08 C50.89 131.09 43.88 131.09 36.88 131.09 C33.16 131.1 29.45 131.1 25.74 131.11 C21.6 131.11 17.46 131.11 13.32 131.11 C12.08 131.12 10.84 131.12 9.56 131.12 C7.88 131.12 7.88 131.12 6.17 131.12 C5.19 131.12 4.21 131.12 3.2 131.12 C1 131 1 131 0 130 C-0.1 128.32 -0.12 126.63 -0.12 124.94 C-0.12 123.85 -0.12 122.76 -0.12 121.63 C-0.12 120.42 -0.12 119.2 -0.11 117.95 C-0.11 116.66 -0.11 115.38 -0.11 114.05 C-0.11 110.55 -0.11 107.05 -0.1 103.56 C-0.1 100.28 -0.1 97 -0.09 93.72 C-0.09 84.13 -0.08 74.53 -0.06 64.94 C-0.04 43.51 -0.02 22.08 0 0 Z " fill="#FDFDFD" transform="translate(1146,0)"/>
<path d="M0 0 C1.11 0 2.22 0 3.37 0 C4.63 0 5.88 -0 7.18 -0.01 C8.56 0 9.94 0.01 11.32 0.02 C12.72 0.02 14.13 0.02 15.54 0.02 C18.49 0.02 21.44 0.03 24.39 0.04 C28.18 0.06 31.96 0.06 35.75 0.06 C38.66 0.06 41.56 0.07 44.47 0.07 C45.87 0.08 47.27 0.08 48.66 0.08 C50.61 0.08 52.56 0.09 54.51 0.1 C55.62 0.11 56.73 0.11 57.88 0.11 C60.37 0.25 60.37 0.25 61.37 1.25 C61.51 4.11 61.57 6.95 61.6 9.81 C61.61 10.72 61.62 11.63 61.63 12.56 C61.67 15.63 61.7 18.71 61.73 21.78 C61.75 23.97 61.77 26.16 61.8 28.35 C62.02 48.42 62.14 68.49 62.23 88.56 C62.25 91.25 62.26 93.94 62.27 96.63 C62.28 97.63 62.28 97.63 62.28 98.65 C62.34 109.45 62.45 120.25 62.59 131.05 C62.72 142.15 62.8 153.25 62.83 164.34 C62.84 170.57 62.89 176.8 62.99 183.02 C63.09 188.89 63.12 194.76 63.09 200.63 C63.09 202.77 63.12 204.92 63.18 207.06 C63.43 217.41 63.37 225.16 55.99 232.97 C53.41 235.41 50.76 237.71 47.95 239.88 C46.11 241.35 46.11 241.35 44.37 244.25 C43.71 244.25 43.05 244.25 42.37 244.25 C42.12 244.83 41.86 245.41 41.59 246.01 C40.28 248.43 38.82 250.06 36.87 252 C36.27 252.61 35.66 253.22 35.03 253.86 C33.37 255.25 33.37 255.25 31.37 255.25 C31.04 256.07 31.04 256.07 30.7 256.92 C28.96 259.98 26.72 262.05 24.19 264.5 C21.02 267.59 17.91 270.67 15.06 274.06 C9.58 280.5 3.38 286.31 -2.63 292.25 C-4.79 289.01 -4.88 288.14 -4.88 284.4 C-4.88 283.4 -4.89 282.39 -4.89 281.36 C-4.89 280.25 -4.88 279.14 -4.88 278 C-4.88 276.24 -4.88 276.24 -4.89 274.45 C-4.9 271.19 -4.89 267.93 -4.89 264.66 C-4.88 261.15 -4.89 257.63 -4.89 254.12 C-4.9 247.23 -4.9 240.34 -4.9 233.45 C-4.89 227.86 -4.89 222.26 -4.89 216.66 C-4.89 215.87 -4.89 215.07 -4.89 214.25 C-4.89 212.64 -4.9 211.02 -4.9 209.41 C-4.9 194.24 -4.9 179.08 -4.88 163.92 C-4.88 150.9 -4.88 137.87 -4.89 124.85 C-4.9 109.74 -4.9 94.63 -4.9 79.53 C-4.89 77.92 -4.89 76.31 -4.89 74.7 C-4.89 73.9 -4.89 73.11 -4.89 72.3 C-4.89 66.7 -4.89 61.11 -4.9 55.52 C-4.9 48.71 -4.9 41.9 -4.89 35.08 C-4.89 31.61 -4.88 28.13 -4.89 24.65 C-4.9 20.89 -4.89 17.13 -4.88 13.36 C-4.88 12.25 -4.89 11.15 -4.89 10 C-4.89 9 -4.88 8 -4.88 6.97 C-4.88 6.1 -4.88 5.23 -4.88 4.33 C-4.47 0.98 -3.26 0.31 0 0 Z " fill="#FCFCFC" transform="translate(562.6255035400391,291.7527618408203)"/>
<path d="M0 0 C1.24 0 1.24 0 2.51 0 C3.45 0 4.38 -0 5.35 -0.01 C6.36 0 7.38 0.01 8.42 0.02 C9.98 0.02 9.98 0.02 11.57 0.02 C13.77 0.02 15.96 0.03 18.16 0.04 C21.53 0.06 24.91 0.06 28.28 0.06 C30.41 0.07 32.54 0.07 34.67 0.08 C35.69 0.08 36.71 0.08 37.75 0.08 C38.69 0.09 39.62 0.1 40.59 0.1 C41.41 0.11 42.24 0.11 43.09 0.11 C44.98 0.25 44.98 0.25 45.98 1.25 C46.09 2.66 46.13 4.09 46.14 5.51 C46.15 6.42 46.16 7.34 46.17 8.29 C46.18 9.81 46.18 9.81 46.19 11.37 C46.2 12.43 46.21 13.49 46.22 14.59 C46.25 18.12 46.27 21.66 46.3 25.19 C46.32 27.63 46.34 30.07 46.36 32.52 C46.42 38.96 46.47 45.4 46.51 51.84 C46.56 58.41 46.62 64.98 46.68 71.55 C46.78 84.45 46.88 97.35 46.98 110.25 C47.58 110.26 48.18 110.27 48.8 110.28 C55.01 110.39 61.22 110.5 67.43 110.62 C69.76 110.66 72.08 110.7 74.4 110.74 C77.73 110.8 81.06 110.87 84.38 110.93 C85.43 110.95 86.47 110.96 87.55 110.98 C88.51 111 89.47 111.02 90.46 111.04 C91.31 111.06 92.16 111.07 93.04 111.09 C94.98 111.25 94.98 111.25 95.98 112.25 C96.08 113.81 96.1 115.38 96.1 116.95 C96.1 118.45 96.1 118.45 96.1 119.98 C96.09 121.07 96.08 122.16 96.08 123.28 C96.08 124.39 96.08 125.5 96.08 126.64 C96.07 130.2 96.06 133.75 96.04 137.31 C96.04 139.71 96.03 142.12 96.03 144.52 C96.02 150.43 96 156.34 95.98 162.25 C90.9 162.47 85.81 162.63 80.72 162.74 C79 162.79 77.27 162.85 75.54 162.93 C59.38 163.64 59.38 163.64 53.29 158.21 C51.82 156.58 50.38 154.93 48.98 153.25 C47.58 151.87 46.16 150.51 44.72 149.16 C43.43 147.88 42.14 146.59 40.86 145.31 C40.19 144.65 39.52 143.99 38.83 143.32 C37.88 142.37 37.88 142.37 36.91 141.41 C36.06 140.57 36.06 140.57 35.2 139.71 C33.98 138.25 33.98 138.25 33.98 136.25 C33.32 136.25 32.66 136.25 31.98 136.25 C31.98 135.59 31.98 134.93 31.98 134.25 C30.99 133.92 30 133.59 28.98 133.25 C28.98 132.59 28.98 131.93 28.98 131.25 C28.32 131.25 27.66 131.25 26.98 131.25 C26.98 130.59 26.98 129.93 26.98 129.25 C26.42 129.01 25.86 128.77 25.28 128.53 C22.46 126.95 20.51 125.03 18.22 122.75 C16.88 121.42 16.88 121.42 15.52 120.06 C14.6 119.13 13.68 118.2 12.73 117.25 C11.8 116.32 10.86 115.39 9.9 114.43 C8.57 113.1 8.57 113.1 7.22 111.75 C6.4 110.93 5.59 110.12 4.75 109.28 C2.98 107.25 2.98 107.25 2.98 105.25 C2.32 105.25 1.66 105.25 0.98 105.25 C0.98 104.59 0.98 103.93 0.98 103.25 C0.34 102.96 -0.3 102.67 -0.96 102.37 C-3.02 101.25 -3.02 101.25 -4.02 99.25 C-4.12 96.21 -4.16 93.19 -4.16 90.15 C-4.17 89.2 -4.17 88.26 -4.17 87.29 C-4.18 84.16 -4.18 81.03 -4.19 77.9 C-4.19 75.74 -4.19 73.57 -4.2 71.4 C-4.2 66.86 -4.2 62.31 -4.2 57.76 C-4.2 51.93 -4.22 46.09 -4.23 40.25 C-4.25 35.77 -4.25 31.3 -4.25 26.82 C-4.25 24.67 -4.25 22.51 -4.26 20.36 C-4.27 17.36 -4.27 14.35 -4.26 11.35 C-4.27 10.45 -4.27 9.55 -4.28 8.63 C-4.24 0.52 -4.24 0.52 0 0 Z " fill="#FCFCFC" transform="translate(449.01808166503906,1.7527618408203125)"/>
<path d="M0 0 C0.33 0.99 0.66 1.98 1 3 C0.55 3.38 0.1 3.76 -0.36 4.14 C-6.56 9.45 -12.28 15.19 -18 21 C-18.66 20.34 -19.32 19.68 -20 19 C-17.05 16.02 -14.09 13.04 -11.12 10.06 C-10.28 9.21 -9.44 8.36 -8.57 7.49 C-7.77 6.68 -6.96 5.87 -6.13 5.04 C-5.39 4.29 -4.65 3.54 -3.88 2.77 C-2 1 -2 1 0 0 Z " fill="#E8E9E9" transform="translate(787,0)"/>
</svg>
